<svg fill="none" height="300" viewBox="0 0 24 24" width="300" xmlns="http://www.w3.org/2000/svg" version="1.1" xmlns:xlink="http://www.w3.org/1999/xlink" xmlns:svgjs="http://svgjs.dev/svgjs"><g width="100%" height="100%" transform="matrix(1,0,0,1,0,0)"><path clip-rule="evenodd" d="m14.2426 3.02985c.5358.13395.8616.67688.7276 1.21268l-4 15.99997c-.1339.5358-.6769.8616-1.21267.7276-.53579-.1339-.86155-.6768-.7276-1.2126l3.99997-16.00004c.134-.5358.6769-.86156 1.2127-.72761zm-7.61784 3.18927c.43127.34501.50119.97431.15618 1.40557l-3.50025 4.37531 3.50025 4.3753c.34501.4313.27509 1.0606-.15618 1.4056-.43126.345-1.06055.275-1.40556-.1562l-3.75012-4.6877c-.43827-.5478-.43826-1.3262 0-1.874l3.75012-4.6877c.34501-.43126.9743-.50119 1.40556-.15618zm10.75064 0c.4312-.34501 1.0605-.27508 1.4055.15618l3.7502 4.6876c.4382.5479.4382 1.3263 0 1.8741l-3.7502 4.6877c-.345.4312-.9743.5012-1.4055.1562-.4313-.345-.5012-.9743-.1562-1.4056l3.5002-4.3753-3.5002-4.37531c-.345-.43126-.2751-1.06056.1562-1.40557z" fill="#ffffff" fill-rule="evenodd" fill-opacity="1" data-original-color="#000000ff" stroke="none" stroke-opacity="1"/></g></svg>