<svg id="Icons" height="300" viewBox="0 0 32 32" width="300" xmlns="http://www.w3.org/2000/svg" version="1.1" xmlns:xlink="http://www.w3.org/1999/xlink" xmlns:svgjs="http://svgjs.dev/svgjs"><g width="100%" height="100%" transform="matrix(1,0,0,1,0,0)"><path d="m30.5 24h-3.5v-15.5a3.5 3.5 0 0 0 -3.5-3.5h-15.5v-3.5a1.5 1.5 0 0 0 -3 0v3.5h-3.5a1.5 1.5 0 0 0 0 3h3.5v15.5a3.5 3.5 0 0 0 3.5 3.5h15.5v3.5a1.5 1.5 0 0 0 3 0v-3.5h3.5a1.5 1.5 0 0 0 0-3zm-22 0a.5.5 0 0 1 -.5-.5v-15.5h15.5a.5.5 0 0 1 .5.5v15.5z" fill="#ffffff" fill-opacity="1" data-original-color="#000000ff" stroke="none" stroke-opacity="1"/></g></svg>