<svg xmlns="http://www.w3.org/2000/svg" xmlns:xlink="http://www.w3.org/1999/xlink" width="500" zoomAndPan="magnify" viewBox="0 0 375 374.999991" height="500" preserveAspectRatio="xMidYMid meet" version="1.2"><defs><clipPath id="a3b591beff"><path d="M 1.550781 1.550781 L 373.449219 1.550781 L 373.449219 373.449219 L 1.550781 373.449219 Z M 1.550781 1.550781 "/></clipPath><clipPath id="9cd6f012f9"><path d="M 187.5 1.550781 C 84.804688 1.550781 1.550781 84.804688 1.550781 187.5 C 1.550781 290.195312 84.804688 373.449219 187.5 373.449219 C 290.195312 373.449219 373.449219 290.195312 373.449219 187.5 C 373.449219 84.804688 290.195312 1.550781 187.5 1.550781 Z M 187.5 1.550781 "/></clipPath></defs><g id="2e31c6aa98"><g clip-rule="nonzero" clip-path="url(#a3b591beff)"><g clip-rule="nonzero" clip-path="url(#9cd6f012f9)"><path style=" stroke:none;fill-rule:nonzero;fill:#ffffff;fill-opacity:1;" d="M 1.550781 1.550781 L 373.449219 1.550781 L 373.449219 373.449219 L 1.550781 373.449219 Z M 1.550781 1.550781 "/></g></g><path style=" stroke:none;fill-rule:nonzero;fill:#e74c3c;fill-opacity:1;" d="M 199.109375 106.199219 C 192.695312 106.199219 187.496094 111.398438 187.496094 117.8125 C 187.496094 124.226562 192.695312 129.425781 199.109375 129.425781 L 229.140625 129.425781 L 156.054688 202.511719 C 151.519531 207.046875 151.519531 214.398438 156.054688 218.933594 C 160.589844 223.46875 167.945312 223.46875 172.480469 218.933594 L 245.5625 145.847656 L 245.5625 175.878906 C 245.5625 182.292969 250.761719 187.496094 257.175781 187.496094 C 263.59375 187.496094 268.792969 182.292969 268.792969 175.878906 L 268.792969 117.8125 C 268.792969 111.398438 263.59375 106.199219 257.175781 106.199219 Z M 199.109375 106.199219 "/><path style=" stroke:none;fill-rule:nonzero;fill:#e74c3c;fill-opacity:1;" d="M 129.425781 129.425781 C 116.597656 129.425781 106.199219 139.824219 106.199219 152.652344 L 106.199219 245.5625 C 106.199219 258.390625 116.597656 268.792969 129.425781 268.792969 L 222.335938 268.792969 C 235.164062 268.792969 245.5625 258.390625 245.5625 245.5625 L 245.5625 210.722656 C 245.5625 204.308594 240.363281 199.109375 233.949219 199.109375 C 227.535156 199.109375 222.335938 204.308594 222.335938 210.722656 L 222.335938 245.5625 L 129.425781 245.5625 L 129.425781 152.652344 L 164.265625 152.652344 C 170.679688 152.652344 175.878906 147.453125 175.878906 141.039062 C 175.878906 134.625 170.679688 129.425781 164.265625 129.425781 Z M 129.425781 129.425781 "/></g></svg>