<svg width="326" height="128" viewBox="0 0 326 128" fill="none" xmlns="http://www.w3.org/2000/svg">
<path d="M0.888 124.664C2.50933 123.213 4.30133 121.208 6.264 118.648C8.22667 116.173 10.104 113.187 11.896 109.688C13.7733 106.275 15.224 102.563 16.248 98.552C16.6747 96.8453 16.9733 95.1387 17.144 93.432C17.3147 91.7253 17.4427 90.0613 17.528 88.44V6.392C15.6507 5.53867 13.6027 4.984 11.384 4.728C9.16533 4.472 7.45867 4.34399 6.264 4.34399V0.503998H40.056V4.34399C38.8613 4.34399 37.1547 4.472 34.936 4.728C32.8027 4.984 30.7547 5.53867 28.792 6.392V91C27.4267 96.632 25.5067 101.581 23.032 105.848C20.5573 110.2 17.9547 113.912 15.224 116.984C12.5787 120.056 10.1893 122.445 8.056 124.152C5.92267 125.944 4.472 127.096 3.704 127.608L0.888 124.664ZM44.977 63.48C44.977 57.2507 46.2143 51.7467 48.689 46.968C51.1637 42.104 54.449 38.3067 58.545 35.576C62.7263 32.8453 67.3343 31.5227 72.369 31.608C76.6357 31.608 80.3903 32.6747 83.633 34.808C86.8757 36.9413 89.3077 39.8427 90.929 43.512C92.6357 47.096 93.233 51.064 92.721 55.416L54.321 57.464V57.848C54.321 62.2853 55.217 66.424 57.009 70.264C58.801 74.0187 61.2757 77.048 64.433 79.352C67.5903 81.5707 71.1743 82.68 75.185 82.68C78.0863 82.68 80.7317 82.1253 83.121 81.016C85.5103 79.8213 87.5157 78.4987 89.137 77.048L91.825 79.352C90.545 81.2293 88.753 83.1493 86.449 85.112C84.2303 87.0747 81.6703 88.7387 78.769 90.104C75.8677 91.384 72.753 92.024 69.425 92.024C64.6463 92.024 60.4223 90.7013 56.753 88.056C53.0837 85.4107 50.1823 81.912 48.049 77.56C46.001 73.208 44.977 68.5147 44.977 63.48ZM69.297 38.264C65.6277 38.264 62.513 39.6293 59.953 42.36C57.4783 45.0907 55.8143 48.4187 54.961 52.344L81.329 50.296C81.329 47.0533 80.1343 44.2373 77.745 41.848C75.3557 39.4587 72.5397 38.264 69.297 38.264ZM97.703 91V87.16C98.8123 87.16 100.348 87.032 102.311 86.776C104.274 86.52 106.108 85.9653 107.815 85.112V41.72C106.706 41.2933 105.383 41.08 103.847 41.08C102.396 40.9947 101.074 41.0373 99.879 41.208L98.727 37.88L115.623 30.84L118.183 32.632V41.208C120.06 39.7573 122.151 38.3067 124.455 36.856C126.844 35.4053 129.276 34.168 131.751 33.144C134.311 32.12 136.786 31.608 139.175 31.608C140.711 31.608 142.46 31.864 144.423 32.376C146.471 32.888 148.476 34.04 150.439 35.832C151.975 37.1973 153.212 39.0747 154.151 41.464C155.175 43.8533 155.687 46.968 155.687 50.808V85.112C157.394 85.9653 159.228 86.52 161.191 86.776C163.154 87.032 164.69 87.16 165.799 87.16V91H136.231V87.16C137.17 87.16 138.535 87.032 140.327 86.776C142.119 86.52 143.783 85.9653 145.319 85.112V54.008C145.319 51.8747 145.234 50.04 145.063 48.504C144.892 46.968 144.38 45.5173 143.527 44.152C142.588 42.616 141.308 41.464 139.687 40.696C138.151 39.928 136.402 39.544 134.439 39.544C131.111 39.544 128.039 40.3547 125.223 41.976C122.492 43.5973 120.146 45.176 118.183 46.712V85.112C119.89 85.9653 121.724 86.52 123.687 86.776C125.65 87.032 127.186 87.16 128.295 87.16V91H97.703ZM170.703 91V87.16C171.812 87.16 173.348 87.032 175.311 86.776C177.274 86.52 179.108 85.9653 180.815 85.112V41.72C179.706 41.2933 178.383 41.08 176.847 41.08C175.396 40.9947 174.074 41.0373 172.879 41.208L171.727 37.88L188.623 30.84L191.183 32.632V41.208C193.06 39.7573 195.151 38.3067 197.455 36.856C199.844 35.4053 202.276 34.168 204.751 33.144C207.311 32.12 209.786 31.608 212.175 31.608C213.711 31.608 215.46 31.864 217.423 32.376C219.471 32.888 221.476 34.04 223.439 35.832C224.975 37.1973 226.212 39.0747 227.151 41.464C228.175 43.8533 228.687 46.968 228.687 50.808V85.112C230.394 85.9653 232.228 86.52 234.191 86.776C236.154 87.032 237.69 87.16 238.799 87.16V91H209.231V87.16C210.17 87.16 211.535 87.032 213.327 86.776C215.119 86.52 216.783 85.9653 218.319 85.112V54.008C218.319 51.8747 218.234 50.04 218.063 48.504C217.892 46.968 217.38 45.5173 216.527 44.152C215.588 42.616 214.308 41.464 212.687 40.696C211.151 39.928 209.402 39.544 207.439 39.544C204.111 39.544 201.039 40.3547 198.223 41.976C195.492 43.5973 193.146 45.176 191.183 46.712V85.112C192.89 85.9653 194.724 86.52 196.687 86.776C198.65 87.032 200.186 87.16 201.295 87.16V91H170.703ZM261.081 92.024C256.644 92.024 252.974 90.616 250.073 87.8C247.172 84.984 245.721 81.3147 245.721 76.792C245.721 75.1707 245.849 73.592 246.105 72.056C246.446 70.52 246.916 69.1973 247.513 68.088C248.281 67.6613 249.817 67.0213 252.121 66.168C254.51 65.2293 257.241 64.2053 260.313 63.096C263.385 61.9867 266.329 60.92 269.145 59.896C272.046 58.872 274.393 58.0613 276.185 57.464V47.608C276.185 45.9013 276.1 44.536 275.929 43.512C275.844 42.488 275.502 41.5067 274.905 40.568C274.393 39.7147 273.582 38.9467 272.473 38.264C271.364 37.5813 269.956 37.24 268.249 37.24C265.177 37.24 262.702 38.3493 260.825 40.568C259.033 42.7013 258.393 45.3893 258.905 48.632L248.665 52.728C248.58 48.2053 249.561 44.3653 251.609 41.208C253.657 38.0507 256.43 35.6613 259.929 34.04C263.513 32.4187 267.353 31.608 271.449 31.608C275.886 31.608 279.47 32.6747 282.201 34.808C284.932 36.856 286.297 40.0987 286.297 44.536V77.304C286.297 79.6933 286.34 81.4 286.425 82.424C286.596 83.3627 287.108 84.1733 287.961 84.856C288.814 85.4533 289.838 85.6667 291.033 85.496C292.228 85.3253 293.209 85.112 293.977 84.856L295.513 88.184C293.977 89.2933 292.313 90.232 290.521 91C288.814 91.6827 286.894 92.024 284.761 92.024C282.457 92.024 280.622 91.384 279.257 90.104C277.892 88.7387 277.038 87.1173 276.697 85.24C273.966 86.8613 271.406 88.3973 269.017 89.848C266.628 91.2987 263.982 92.024 261.081 92.024ZM264.921 84.088C266.286 84.088 267.908 83.832 269.785 83.32C271.662 82.808 273.796 81.9547 276.185 80.76V63.096C273.625 63.9493 270.894 64.9307 267.993 66.04C265.177 67.1493 262.66 68.1733 260.441 69.112C258.308 69.9653 256.9 70.6053 256.217 71.032C255.364 74.7867 255.748 77.9013 257.369 80.376C259.076 82.8507 261.593 84.088 264.921 84.088ZM317.673 92.024C315.369 92.024 313.449 91.256 311.913 89.72C310.377 88.184 309.609 86.3067 309.609 84.088C309.609 81.8693 310.377 79.9493 311.913 78.328C313.449 76.7067 315.369 75.896 317.673 75.896C319.977 75.896 321.897 76.664 323.433 78.2C325.054 79.736 325.865 81.6133 325.865 83.832C325.865 85.9653 325.054 87.8853 323.433 89.592C321.897 91.2133 319.977 92.024 317.673 92.024Z" fill="white"/>
</svg>
